<?xml version="1.0" standalone="no"?>
<svg xmlns:xlink="http://www.w3.org/1999/xlink" id="wave" style="transform:rotate(180deg); transition: 0.3s" viewBox="0 0 1440 490" version="1.1" xmlns="http://www.w3.org/2000/svg"><defs><linearGradient id="sw-gradient-0" x1="0" x2="0" y1="1" y2="0"><stop stop-color="rgba(3, 37, 108, 1)" offset="0%"/><stop stop-color="rgba(3, 37, 108, 0.72)" offset="100%"/></linearGradient></defs><path style="transform:translate(0, 0px); opacity:1" fill="url(#sw-gradient-0)" d="M0,196L60,163.3C120,131,240,65,360,57.2C480,49,600,98,720,163.3C840,229,960,310,1080,310.3C1200,310,1320,229,1440,204.2C1560,180,1680,212,1800,187.8C1920,163,2040,82,2160,57.2C2280,33,2400,65,2520,114.3C2640,163,2760,229,2880,228.7C3000,229,3120,163,3240,122.5C3360,82,3480,65,3600,98C3720,131,3840,212,3960,228.7C4080,245,4200,196,4320,204.2C4440,212,4560,278,4680,294C4800,310,4920,278,5040,228.7C5160,180,5280,114,5400,106.2C5520,98,5640,147,5760,163.3C5880,180,6000,163,6120,187.8C6240,212,6360,278,6480,326.7C6600,376,6720,408,6840,416.5C6960,425,7080,408,7200,351.2C7320,294,7440,196,7560,147C7680,98,7800,98,7920,89.8C8040,82,8160,65,8280,89.8C8400,114,8520,180,8580,212.3L8640,245L8640,490L8580,490C8520,490,8400,490,8280,490C8160,490,8040,490,7920,490C7800,490,7680,490,7560,490C7440,490,7320,490,7200,490C7080,490,6960,490,6840,490C6720,490,6600,490,6480,490C6360,490,6240,490,6120,490C6000,490,5880,490,5760,490C5640,490,5520,490,5400,490C5280,490,5160,490,5040,490C4920,490,4800,490,4680,490C4560,490,4440,490,4320,490C4200,490,4080,490,3960,490C3840,490,3720,490,3600,490C3480,490,3360,490,3240,490C3120,490,3000,490,2880,490C2760,490,2640,490,2520,490C2400,490,2280,490,2160,490C2040,490,1920,490,1800,490C1680,490,1560,490,1440,490C1320,490,1200,490,1080,490C960,490,840,490,720,490C600,490,480,490,360,490C240,490,120,490,60,490L0,490Z"/><defs><linearGradient id="sw-gradient-1" x1="0" x2="0" y1="1" y2="0"><stop stop-color="rgba(3, 37, 108, 1)" offset="0%"/><stop stop-color="rgba(3, 37, 108, 1)" offset="100%"/></linearGradient></defs><path style="transform:translate(0, 50px); opacity:0.9" fill="url(#sw-gradient-1)" d="M0,196L60,171.5C120,147,240,98,360,106.2C480,114,600,180,720,236.8C840,294,960,343,1080,318.5C1200,294,1320,196,1440,138.8C1560,82,1680,65,1800,122.5C1920,180,2040,310,2160,375.7C2280,441,2400,441,2520,375.7C2640,310,2760,180,2880,155.2C3000,131,3120,212,3240,212.3C3360,212,3480,131,3600,81.7C3720,33,3840,16,3960,81.7C4080,147,4200,294,4320,318.5C4440,343,4560,245,4680,228.7C4800,212,4920,278,5040,326.7C5160,376,5280,408,5400,383.8C5520,359,5640,278,5760,236.8C5880,196,6000,196,6120,220.5C6240,245,6360,294,6480,302.2C6600,310,6720,278,6840,277.7C6960,278,7080,310,7200,277.7C7320,245,7440,147,7560,114.3C7680,82,7800,114,7920,171.5C8040,229,8160,310,8280,310.3C8400,310,8520,229,8580,187.8L8640,147L8640,490L8580,490C8520,490,8400,490,8280,490C8160,490,8040,490,7920,490C7800,490,7680,490,7560,490C7440,490,7320,490,7200,490C7080,490,6960,490,6840,490C6720,490,6600,490,6480,490C6360,490,6240,490,6120,490C6000,490,5880,490,5760,490C5640,490,5520,490,5400,490C5280,490,5160,490,5040,490C4920,490,4800,490,4680,490C4560,490,4440,490,4320,490C4200,490,4080,490,3960,490C3840,490,3720,490,3600,490C3480,490,3360,490,3240,490C3120,490,3000,490,2880,490C2760,490,2640,490,2520,490C2400,490,2280,490,2160,490C2040,490,1920,490,1800,490C1680,490,1560,490,1440,490C1320,490,1200,490,1080,490C960,490,840,490,720,490C600,490,480,490,360,490C240,490,120,490,60,490L0,490Z"/></svg>